<svg xmlns="http://www.w3.org/2000/svg" width="61.568" height="61.572" viewBox="0 0 61.568 61.572">
  <path id="price-tag-svgrepo-com" d="M57.984,40.774,38.7,60.054a4.886,4.886,0,0,1-6.885,0L4.223,32.461A13.3,13.3,0,0,1,.835,24.148L1.024,7.975a5.013,5.013,0,0,1,4.93-4.921L22.079,2.9a13.357,13.357,0,0,1,8.313,3.4L57.984,33.889a4.886,4.886,0,0,1,0,6.885ZM13.977,12.711a3.48,3.48,0,1,0-3.48,3.48A3.48,3.48,0,0,0,13.977,12.711ZM42.949,45a2.434,2.434,0,0,0,0-3.445L41.187,39.79a11.116,11.116,0,0,0,1.538-3.647,6.876,6.876,0,0,0-1.744-6.6,6.986,6.986,0,0,0-4.468-2.021,9.4,9.4,0,0,0-3.3.373h-.009a10.739,10.739,0,0,0-2.592,1.217H30.6a11.762,11.762,0,0,0-1.924,1.569,8.976,8.976,0,0,1-1.138.967,5.668,5.668,0,0,1-1.446.747h-.009a3.669,3.669,0,0,1-1.485.167h-.009a2.329,2.329,0,0,1-1.38-.6,2.368,2.368,0,0,1-.466-2.346,6.766,6.766,0,0,1,1.8-3.12,7.17,7.17,0,0,1,1.011-.725l.132-.083A7.834,7.834,0,0,1,27.105,25a4.139,4.139,0,0,1,1.428-.264,2.434,2.434,0,1,0,0-4.868h0a9.042,9.042,0,0,0-3.15.58A12.5,12.5,0,0,0,23.054,21.6l-.044.026-1.749-1.757a2.437,2.437,0,1,0-3.445,3.449l1.7,1.7A11.041,11.041,0,0,0,18,28.542,7.223,7.223,0,0,0,19.772,35.4a7.127,7.127,0,0,0,4.319,2,8.445,8.445,0,0,0,3.537-.391,10.422,10.422,0,0,0,2.742-1.4,13.8,13.8,0,0,0,1.749-1.489,6.894,6.894,0,0,1,1.125-.914,6.068,6.068,0,0,1,1.406-.663,4.5,4.5,0,0,1,1.529-.167,2.131,2.131,0,0,1,1.353.611c.22.215.725.725.426,2.144a6.845,6.845,0,0,1-1.815,3.2,10.879,10.879,0,0,1-1.23.962,7.588,7.588,0,0,1-1.344.69,3.019,3.019,0,0,1-1.406.185,2.436,2.436,0,0,0-.351,4.859c.228.018.453.022.668.022a7.57,7.57,0,0,0,3.01-.589,11.766,11.766,0,0,0,2.228-1.186l.044-.031L39.5,45a2.439,2.439,0,0,0,3.44,0Z" transform="translate(0.665 -1.4)" fill="none" stroke="#ffc346" stroke-width="3"/>
</svg>
