<svg xmlns="http://www.w3.org/2000/svg" width="49.281" height="57.978" viewBox="0 0 49.281 57.978">
  <path id="apple" d="M34.111,9.915A12.414,12.414,0,0,0,37.26.659a13.777,13.777,0,0,0-8.914,4.392c-1.961,2.171-3.673,5.641-3.213,8.968A11.414,11.414,0,0,0,34.111,9.915ZM41.73,31.46c.085,8.775,8.032,11.694,8.12,11.732a31.068,31.068,0,0,1-4.186,8.247c-2.524,3.531-5.142,7.047-9.266,7.123-4.051.073-5.356-2.3-9.99-2.3s-6.08,2.226-9.914,2.374c-3.981.142-7.015-3.82-9.556-7.339C1.737,44.1-2.235,30.953,3.1,22.082a14.919,14.919,0,0,1,12.526-7.266c3.907-.072,7.6,2.52,9.987,2.52S32.487,14.22,37.2,14.678A14.347,14.347,0,0,1,48.27,20.429C47.982,20.6,41.659,24.126,41.73,31.46Z" transform="translate(-0.568 -0.659)" fill-rule="evenodd"/>
</svg>
