<svg xmlns="http://www.w3.org/2000/svg" width="36.258" height="36.5" viewBox="0 0 36.258 36.5">
  <path id="service-svgrepo-com" d="M96.136,71.838A7.766,7.766,0,0,1,94.6,85.972,10.357,10.357,0,0,1,84.487,94.1H80.6a1.294,1.294,0,0,1,0-2.589h3.883a7.769,7.769,0,0,0,7.326-5.177h-.854a1.294,1.294,0,0,1-1.294-1.294V72.1A1.294,1.294,0,0,1,90.959,70.8h1.294a7.791,7.791,0,0,1,1.235.1,11.649,11.649,0,0,0-23.179,0,7.816,7.816,0,0,1,1.235-.1h1.294A1.294,1.294,0,0,1,74.133,72.1V85.04a1.294,1.294,0,0,1-1.294,1.294H71.544a7.766,7.766,0,0,1-3.883-14.5,14.238,14.238,0,0,1,28.475,0ZM71.544,73.391a5.177,5.177,0,1,0,0,10.355Zm25.886,5.177a5.177,5.177,0,0,0-5.177-5.177V83.745A5.177,5.177,0,0,0,97.431,78.568Z" transform="translate(-63.769 -57.6)"/>
</svg>
