<?xml version="1.0" encoding="utf-8"?>
<!-- Generator: Adobe Illustrator 27.3.1, SVG Export Plug-In . SVG Version: 6.00 Build 0)  -->
<svg version="1.1" id="Layer_1" xmlns="http://www.w3.org/2000/svg" xmlns:xlink="http://www.w3.org/1999/xlink" x="0px" y="0px"
	 viewBox="0 0 200 200" style="enable-background:new 0 0 200 200;" xml:space="preserve">
<style type="text/css">
	.st0{fill:#4BB348;}
	.st1{fill:#67E24D;}
	.st2{clip-path:url(#SVGID_00000059286852915301403230000007498954725069101216_);}
	.st3{fill:#339144;}
	.st4{opacity:0.6;fill:url(#SVGID_00000069374806415147440730000003435731194065595319_);}
</style>
<g>
	<g>
		<g>
			<path d="M102.8,166.2c-0.6,2.7-1.2,5.4-1.8,8.1c-0.1,0.2-0.1,0.5-0.1,0.8c0,0.1,0,0.3-0.1,0.5v0c-0.1,1.7-0.9,1.6-1.4,1.4
				c-0.5-0.1-0.8-1.4-0.8-1.4l-0.1,0h0.1c-0.8-1.6-1.6-2.9-2.2-4.4c-0.3-0.8-0.8-1.9-0.5-2.6c0.8-2.4,1.4-4.6-1.3-5.6
				c-0.1-1.6,0-2.9-0.2-4.1c-0.9-6-1-12-0.4-18.1c0.9,3,1.7,6.1,2.7,9.1c1,2.9,2.2,5.7,3.4,8.5c0.4,0.9,0.6,1.5-0.6,1.9
				c-0.9,0.3-0.8,0.9,0,1.3c0.5,0.3,1,0.5,1.6,0.8C103,163.5,103.2,164,102.8,166.2L102.8,166.2z"/>
			<path d="M116.2,111.4c-1.3,5.6-3.8,10.4-8.4,14.1c-0.8,0.6-1.5,1-2.4,0.2c-0.9-0.8-2.4-1.2-1.5-2.9c0.3-0.5,0.5-1.1,0.6-1.7
				c0.2-1.2,0.8-1.8,2.1-1.5c1,0.2,1.4-0.5,1.5-1.4c0.2-1,0.3-2,0.5-3c0.5-2.9,0.6-3-2.3-3.7c-2.3-0.5-4.6-0.5-6.9-0.9
				c-1.7-0.2-2.6,0.6-3.3,1.9c-1.8,3.9-3.6,7.8-5.3,11.7c-0.3,0.7-0.2,1.8,0.2,2.4c1.9,2.9,2.3,5.9,1.7,9.4
				c-1.2,7.5-1.4,15.1,0.1,22.7c0.3,1.4,0.5,2.9-2,2.8c0,0.2,0.1,0.4,0.1,0.6c0.7,0.5,1.4,1,2.1,1.5c1.9,1.3,2.1,1.8,1.4,4
				c-0.9,2.8-1.9,5.5-2.9,8.3c-0.1,0.1-0.1,0.3-0.2,0.5c0,0.1,0,0.1-0.1,0.2c0,0.1,0,0.1,0,0.2c-0.1,0.2-0.2,0.4-0.2,0.7
				c-0.6,1.5-2,0.8-2.3-0.9c-0.2-1-0.4-1.8-0.6-2.5c0-0.1-0.1-0.2-0.1-0.2c0-0.1-0.1-0.2-0.1-0.3c-4-11.8-7.1-23.7-8.8-36
				c-1.5-10.9-1-21.8,1.3-32.6c0.3-1.4,1-2.2,2.4-2.7c4.2-1.5,8.5-1.5,12.9-0.8c7.3,1.2,13.7,4.3,19.7,8.4
				C116,110.1,116.3,110.9,116.2,111.4L116.2,111.4z"/>
			<path class="st0" d="M94.9,118c0,0,8.2,32.2,41.7,26.2l-9.2,25.9C127.5,170.1,92.7,151.8,94.9,118L94.9,118z"/>
		</g>
	</g>
	<g>
		<circle class="st1" cx="90.1" cy="48.5" r="26.2"/>
		<g>
			<defs>
				<circle id="SVGID_1_" cx="90.1" cy="48.5" r="26.2"/>
			</defs>
			<clipPath id="SVGID_00000156576058367769166000000003715971581888054665_">
				<use xlink:href="#SVGID_1_"  style="overflow:visible;"/>
			</clipPath>
			<g style="clip-path:url(#SVGID_00000156576058367769166000000003715971581888054665_);">
				<g>
					<path class="st3" d="M93.1,33.7c0,0.4,0.3,0.5,0.6,0.5c0-0.1,0-0.1-0.1-0.1c0,0-0.1-0.1-0.1-0.1c0,0,0.1,0,0.1,0
						c0.1,0,0.1,0,0.2,0.1c0.1,0,0.1,0,0.2,0c0.1-0.2,0.3-0.3,0.6-0.2c0-0.1-0.1-0.2-0.1-0.2c0-0.1-0.1-0.1,0-0.2c0.1,0,0.2,0,0.3,0
						c0.1,0,0.1,0.1,0.1,0.2c0,0.2,0.1,0.2,0.2,0.1c0.2-0.1,0.5-0.1,0.7-0.2c0.1,0,0.1,0,0.2,0c0.2,0.2,0.4,0.1,0.6,0.1
						c0.2,0,0.2-0.1,0-0.3c0.5,0.2,0.9,0.3,1.4,0.5c0,0,0,0,0.1,0c0.1,0,0.2,0.2,0.3,0.1c0.1-0.1-0.1-0.2-0.2-0.2
						c-0.2-0.1-0.3-0.3-0.3-0.4c0-0.1,0.1-0.3,0.2-0.4c0.1,0,0.5,0.2,0.5,0.3c0,0.1,0,0.2,0.1,0.2c0.1,0,0.2-0.1,0.1-0.3
						c0,0,0,0,0-0.1c0.3,0.1,0.2,0.5,0.5,0.5c0-0.1-0.2-0.1-0.1-0.2c0.1-0.1,0.2,0,0.3,0c0.2,0,0.3,0.2,0.6,0.3
						c-0.2-0.1-0.3-0.2-0.4-0.3c-0.1-0.1-0.1-0.1,0-0.1c0.1,0,0.2,0.1,0.3,0.1c0.1,0,0.3,0.2,0.3-0.1c0-0.1,0.1,0,0.2,0
						c0.4,0,0.8,0.1,1.2,0.2c0.2,0.1,0.3,0.1,0.4,0c0.1-0.1,0.6,0,0.8,0.2c0.1,0.1,0.3,0.2,0.4,0.2c0.2,0.1,0.5,0.2,0.7,0.3
						c0.1,0.1,0.2,0.1,0.2,0.2c0,0.1-0.1,0.1-0.2,0.1c-0.1,0-0.2,0-0.2,0.1c0.1,0.1,0.2,0.1,0.3,0.1c0.1,0,0.3,0,0.4,0.2
						c0,0.1,0.1,0.1,0.2,0.1c0.3,0.1,0.7,0.4,1,0.5c0.1,0.1,0.3,0.2,0.3,0c0,0,0.1,0,0.1,0c0.3,0.2,0.7,0.4,0.9,0.7
						c0.1,0.2,0.3,0.3,0.4,0.5c0,0,0.1,0.1,0.1,0.1c0.2-0.2,0.4,0.1,0.6,0.2c0.1,0,0.2,0.1,0.2,0.1c0,0,0.1,0.1,0.1,0
						c-0.1-0.4,0.2-0.1,0.3,0c0.5,0.3,1,0.6,1.4,1.1c0.4,0.3,0.8,0.5,1.2,0.8c0.2,0.1,0.3,0.3,0.4,0.5c0,0.1,0.1,0.1,0.2,0.2
						c0.5,0.3,0.9,0.7,1.4,1.2c-0.2-0.4,0-0.3,0.1-0.1c0.6,0.6,1.2,1.2,1.8,1.9c0.4,0.5,0.8,0.9,1.2,1.4c0.2,0.2,0.2,0.4,0.3,0.6
						c0,0.1-0.1,0-0.1,0c-0.1-0.1-0.3-0.3-0.4-0.5c-0.1-0.2-0.2-0.3-0.3-0.5c-0.2-0.2-0.2-0.1-0.3-0.1c-0.1,0,0,0.1,0.1,0.2
						c0.1,0.2,0.3,0.4,0.5,0.7c0,0,0,0-0.1,0c-0.3-0.4-0.5-0.4-0.6-0.2c-0.1,0.1-0.1,0.1-0.3-0.1c-0.1-0.1-0.2-0.2-0.2-0.2
						c-0.1,0-0.1,0-0.2-0.1c-0.1-0.1-0.2-0.2-0.3-0.1c0,0.1,0,0.3,0.1,0.4c0.2,0.2,0.3,0.5,0.5,0.7c0.1,0.1,0,0.1,0,0.1
						c0.1,0.2,0.1,0.3,0.1,0.5c0,0.2,0,0.3,0,0.5c0,0.1-0.1,0-0.1-0.1c-0.1-0.1-0.1-0.2-0.2-0.3c-0.2-0.4-0.4-0.8-0.7-1.2
						c-0.2-0.4-0.2-0.5-0.1-0.7c0.1-0.2,0.2-0.3,0.1-0.6c0-0.1-0.1-0.2-0.1-0.2c-0.1-0.1,0,0.1,0,0.1c0,0.1-0.1,0.1-0.1,0.1
						c-0.1,0-0.1-0.1-0.2-0.2c0-0.1-0.1-0.2-0.1-0.2c-0.1-0.2-0.3-0.3-0.3-0.3c-0.1,0-0.2,0.1,0,0.4c0.1,0.1,0.1,0.2,0,0.1
						c-0.1-0.1-0.2-0.1-0.3-0.2c-0.4-0.4-0.8-0.7-1.2-0.9c-0.2-0.1-0.2-0.1-0.3,0.1c0,0.2,0,0.3-0.2,0.4c0,0,0,0.1,0,0.1
						c0.1,0.1,0.2,0.3,0.2,0.2c0.1-0.1,0.1,0,0.1,0.1c0.1,0.2,0.1,0.2,0.3,0.3c0.2,0.1,0.4,0.3,0.5,0.6c0.4,0.9,0.7,1.7,0.4,2.3
						c-0.1,0.2-0.2,0.2-0.4,0c-0.2-0.2-0.2-0.1-0.3,0.1c0,0.1,0,0.3-0.2,0.3c-0.1,0,0,0.1,0,0.2c0.1,0.1,0.2,0.3,0.3,0.4
						c0.2,0.2,0.3,0.5,0.3,0.7c0,0.1,0,0.2-0.1,0.2c-0.1,0-0.2,0-0.4-0.1c-0.1-0.1,0-0.2-0.1-0.3c-0.1-0.3-0.1-0.6-0.4-0.8
						c-0.1-0.1-0.1-0.2-0.2-0.3c0-0.3-0.3-0.5-0.4-0.5c-0.1,0-0.1,0.1-0.2,0c-0.1-0.1-0.1-0.2-0.1-0.3c0-0.1,0-0.1-0.1-0.2
						c-0.1-0.1-0.1,0-0.2,0c0,0,0,0,0,0c-0.1,0.1-0.3,0-0.2,0.1c0,0.1,0.2,0.2,0.3,0.4c0,0.1,0.1,0.1,0.2,0.1c0.1,0,0.1,0,0.2,0.1
						c0.1,0.1,0.2,0.1,0.2,0.2c0,0.1-0.1,0-0.2,0c0,0-0.1,0.1-0.1,0.1c-0.1,0.1-0.1,0.2,0.1,0.4c0.3,0.4,0.4,0.7,0.6,1.1
						c0,0.1-0.1,0.2,0.2,0.3c0,0,0,0.1,0,0.1c-0.1,0.5-0.2,0.9-0.7,1c-0.2,0-0.5,0-0.8-0.1c-0.1,0-0.2-0.1-0.3,0
						c0,0.1-0.1,0-0.2-0.1c-0.1-0.3-0.2-0.4-0.4-0.3c-0.4,0.1-0.4,0.2,0,0.8c0.2,0.3,0.4,0.6,0.5,0.9c0.2,0.6,0.2,0.9-0.2,0.9
						c-0.1,0-0.2,0.1-0.3,0.1c-0.1,0-0.1,0-0.1-0.1c0-0.2-0.1-0.3-0.2-0.5c-0.2-0.2-0.3-0.6-0.6-0.7c0,0,0,0,0-0.1
						c0-0.1,0-0.1-0.1-0.2c-0.1,0-0.1,0.1-0.1,0.1c0,0.1,0,0.2-0.1,0.2c-0.1,0.1,0,0.3,0.1,0.5c0.1,0.4,0.5,0.8,0.7,1.2
						c0,0.1,0.1,0.2,0.1,0.3c0,0.2,0.1,0.5,0.2,0.7c0,0.1,0.1,0.2,0,0.2c-0.1,0-0.1-0.1-0.1-0.2c-0.1-0.1-0.1-0.2-0.2-0.3
						c-0.2-0.3-0.4-0.6-0.4-0.9c0-0.2-0.2-0.6-0.4-0.8c-0.1-0.1-0.1-0.2-0.1-0.3c0.1-0.5-0.1-1.1-0.2-1.7c-0.1-0.2-0.1-0.3-0.3-0.2
						c-0.1,0-0.2,0.1-0.3,0c-0.1-0.1-0.1-0.2-0.1-0.4c0-0.3-0.2-0.5-0.3-0.8c-0.1-0.2-0.2-0.3-0.3-0.5c0-0.1-0.1-0.3-0.2-0.2
						c-0.1,0-0.3,0-0.5-0.1c-0.1-0.1-0.2-0.1-0.2,0c0,0.3-0.3,0.3-0.5,0.4c-0.2,0.1-0.4,0.3-0.7,0.3c-0.1,0-0.1,0.1-0.1,0.2
						c0,0.4,0.1,0.7-0.1,1c0,0.1,0,0.1,0.1,0.1c0.3,0.1,0.3,0.3,0.4,0.5c0.1,0.2,0,0.3-0.1,0.3c-0.1,0.1-0.2,0-0.3-0.2
						c0-0.1,0-0.3-0.1-0.4c0-0.1,0-0.2-0.1-0.2c-0.1-0.1-0.1,0-0.2,0c-0.1,0.1-0.1,0.1-0.2,0c-0.1-0.1-0.1-0.2-0.2-0.3
						c-0.1-0.4-0.3-0.8-0.4-1.1c-0.3-0.6-0.5-1.3-0.5-1.9c0-0.1,0-0.1-0.1-0.2c-0.1,0.1-0.2,0.3-0.3,0.1c-0.2-0.1-0.3-0.3-0.3-0.5
						c0,0,0-0.1,0-0.1c-0.3-0.2-0.5-0.7-0.9-0.8c-0.5-0.1-0.9-0.3-1.4-0.5c-0.1,0-0.2-0.1-0.2-0.1c-0.1-0.3-0.3-0.2-0.5-0.2
						c-0.4,0-0.6-0.3-0.8-0.6c-0.1-0.1-0.1-0.2-0.2-0.3c-0.1-0.1-0.2-0.2-0.3-0.2c-0.1,0-0.2,0.2-0.1,0.3c0.1,0.2,0.3,0.4,0.4,0.6
						c0,0,0.1,0.1,0.1,0.1c0.2-0.1,0.3,0.1,0.3,0.2c0,0.2,0.2,0.2,0.3,0.2c0.2,0,0.3-0.1,0.4-0.2c0.1-0.1,0.2-0.1,0.3,0.1
						c0,0.2,0.1,0.3,0.3,0.4c0.3,0.2,0.4,0.4,0.3,0.6c-0.2,0.3-0.5,0.5-0.8,0.7c0,0-0.1,0-0.1,0c-0.2,0-0.4,0.1-0.5,0.2
						c-0.3,0.1-0.7,0.3-1.1,0.3c-0.1,0-0.2,0-0.4,0.1c-0.2,0.1-0.4,0-0.5-0.3c-0.1-0.2-0.1-0.4-0.3-0.6c0,0-0.1-0.1,0-0.1
						c0.3,0.1,0.1-0.1,0.1-0.1c-0.3-0.2-0.3-0.6-0.6-0.8c-0.1,0-0.1-0.1-0.1-0.2c-0.1-0.5-0.5-1-0.8-1.4c-0.1-0.1-0.1-0.2-0.3-0.1
						c-0.1,0.1,0,0.2,0,0.2c0.2,0.4,0.4,0.8,0.7,1.2c0,0,0,0.1,0,0.1c0,0.3,0.2,0.5,0.3,0.8c0.1,0.2,0.2,0.4,0.4,0.6
						c0.2,0.2,0.4,0.5,0.6,0.7c0.1,0.1,0.1,0.2,0.1,0.3c0,0.2,0.2,0.3,0.4,0.3c0.4-0.1,0.7,0,1.1,0c0.2,0,0.2,0.1,0.2,0.2
						c0,0.3-0.2,0.6-0.3,0.8c-0.2,0.2-0.3,0.4-0.5,0.6c-0.1,0.1-0.2,0.2-0.3,0.3c-0.5,0.3-1,0.7-1.3,1.2c-0.2,0.2-0.2,0.5-0.1,0.8
						c0.1,0.2,0.1,0.5,0.2,0.7c0.1,0.4,0.1,0.7,0,1.1c0,0.2-0.2,0.2-0.4,0.3c-0.3,0.1-0.6,0.3-0.8,0.5c-0.1,0.1-0.1,0.1,0,0.2
						c0,0.1,0.1,0.2,0.1,0.3c0,0.3,0,0.5-0.3,0.6c-0.2,0.1-0.3,0.2-0.3,0.4c0,0.2-0.1,0.4-0.3,0.5c-0.3,0.2-0.5,0.5-0.8,0.8
						c-0.2,0.2-0.6,0.2-0.8,0.2c-0.3,0-0.5,0-0.7,0.1c-0.3,0-0.6-0.2-0.5-0.5c0-0.1,0-0.2,0-0.3c-0.2-0.3-0.4-0.7-0.5-1
						c0-0.1-0.1-0.1-0.1-0.2c0.1-0.5-0.2-1-0.4-1.4c-0.3-0.4-0.3-0.9,0-1.3c0.2-0.3,0.2-0.6,0.1-1c-0.1-0.7-0.5-1.2-0.9-1.7
						c-0.1-0.1-0.1-0.2,0-0.4c0.1-0.2,0.1-0.4,0.1-0.5c0-0.3-0.1-0.4-0.5-0.4c-0.3,0-0.4,0-0.5-0.2c-0.1-0.2-0.5-0.3-0.8-0.1
						c-0.1,0-0.1,0.1-0.2,0.1c-0.3,0.1-0.5,0.3-0.9,0.2c-0.2,0-0.5,0-0.8,0.2c-0.1,0.1-0.2,0.1-0.3,0c-0.2-0.1-0.3-0.2-0.5-0.3
						c-0.3-0.1-0.5-0.3-0.6-0.6c-0.1-0.2-0.3-0.4-0.5-0.4c-0.2,0-0.2-0.2-0.2-0.3c0-0.1,0-0.2-0.1-0.3c-0.1,0,0-0.1,0-0.2
						c0.3-0.5,0.3-0.9,0.1-1.3c0-0.1,0-0.1,0-0.2c0.2-0.2,0.2-0.5,0.4-0.7c0.1-0.1,0.2-0.3,0.3-0.5c0.2-0.3,0.6-0.5,0.8-0.7
						c0.1-0.1,0.2-0.3,0.2-0.4c0-0.2,0.1-0.4,0.3-0.6c0.2-0.1,0.4-0.3,0.5-0.5c0.1-0.3,0-0.5-0.3-0.4c-0.1,0-0.2,0-0.2,0
						c0-0.2-0.1-0.4,0-0.6c0.1-0.2,0.1-0.4,0.1-0.5c0-0.2,0.1-0.3,0.3-0.3c0.3,0,0.6,0,0.8,0c0.4,0,0.5-0.2,0.4-0.5
						c0-0.2-0.1-0.4-0.4-0.4c-0.1,0-0.2,0-0.2-0.1c0-0.1,0.2-0.1,0.3-0.1c0.1,0,0.3,0.1,0.3-0.2c0,0,0.1,0,0.1,0
						c0.2,0.1,0.3,0,0.4-0.1c0.1-0.2,0.3-0.3,0.5-0.3c0.1,0,0.2-0.1,0.2-0.2c0-0.2,0.2-0.3,0.4-0.3c0.1,0,0.1,0,0.2,0
						c0.2,0,0.3-0.1,0.2-0.3c-0.1-0.1-0.1-0.2,0-0.4c0.1-0.1,0.2-0.2,0.3-0.2c0.1,0,0.1,0.1,0.1,0.2c0,0.1,0,0.2,0.2,0.1
						c0.1-0.1,0.2-0.1,0.1-0.2c-0.1-0.1-0.1-0.2-0.2-0.3c-0.1-0.1-0.2,0-0.3,0.1c-0.2,0.2-0.4,0.1-0.6,0c-0.2-0.2-0.2-0.6,0-0.9
						c0.2-0.2,0.4-0.3,0.6-0.2c0.2,0,0.3,0,0.3-0.2c0.1-0.2,0.2-0.3,0.4-0.5c0.1-0.1,0.3-0.1,0.1-0.3c0-0.1,0-0.1,0.1-0.1
						c0.6-0.2,1.1-0.4,1.7-0.3c0.1,0,0.2,0,0.3,0c0.2,0,0.4,0,0.5,0.1c0.1,0.1,0.1,0.1,0.2,0.1c0.5,0.1,0.9,0.3,1.4,0.4
						c0.1,0,0.2,0,0.2,0.2c0,0.1-0.1,0.1-0.2,0.2c-0.2,0.1-0.4,0-0.6,0C93.2,33.7,93.2,33.7,93.1,33.7z M90.7,39.1
						c-0.1,0.1-0.4-0.1-0.3,0.2c0.1,0.3-0.3,0.4-0.4,0.6c-0.1,0.1-0.3,0-0.4-0.1c-0.1,0-0.1,0-0.1-0.1c0-0.1,0.1-0.1,0.2-0.1
						c0,0,0.1,0,0.1,0c0.2,0,0.2,0,0.3-0.2c0.1-0.1,0-0.2-0.1-0.3c-0.1-0.1-0.2-0.2-0.4-0.2c-0.3-0.1-0.5-0.3-0.6-0.5
						c-0.1-0.2-0.2-0.2-0.4-0.1c-0.2,0.1-0.4,0.2-0.6,0.2c-0.1,0-0.3,0-0.3,0.2c0,0.1-0.1,0.2-0.2,0.2C87.2,39,87,39.2,87,39.4
						c-0.1,0.4-0.3,0.5-0.7,0.6c-0.1,0-0.2,0.1-0.3,0.1c-0.1,0.1-0.1,0.1-0.1,0.2c0,0.1,0.1,0.1,0.2,0.1c0.3,0,0.6,0,0.8-0.2
						c0.1-0.1,0.2-0.1,0.3-0.1c0.5-0.1,1.1-0.2,1.7-0.3c0.3,0,0.5,0.2,0.4,0.5c-0.1,0.2,0.1,0.4,0.4,0.5c0.1,0,0.3,0,0.4,0.1
						c0.3,0.3,0.6,0.3,1,0.4c0.1,0,0.2,0,0.2-0.1c0-0.3,0.3-0.5,0.6-0.4c0.3,0.1,0.7,0.3,1,0.4c0.1,0,0.2,0.1,0.3,0.1
						c0.2-0.1,0.5,0,0.7,0c0.1,0,0.2,0,0.3-0.1c0.1-0.2,0.3-0.4,0.3-0.7c0-0.3-0.1-0.4-0.4-0.3c0,0-0.1,0-0.1,0
						c-0.3,0-0.5-0.1-0.8-0.1c-0.3,0-0.7-0.3-0.7-0.7c0-0.1,0-0.1-0.1-0.2c-0.1-0.1-0.2-0.2-0.3-0.1c0,0-0.1,0.1-0.1,0.1
						c0,0-0.1-0.1-0.1,0c0,0.1,0,0.1,0.1,0.1c0.3,0.2,0.2,0.3,0,0.5c-0.1,0.1-0.2,0.1-0.3,0c-0.1-0.2-0.3-0.3-0.4-0.5
						c-0.1-0.1-0.1-0.2-0.1-0.3c0-0.2-0.1-0.3-0.3-0.4c-0.4-0.2-0.7-0.4-0.9-0.7c0-0.1-0.1-0.1-0.2-0.1c-0.1,0-0.1,0.1-0.1,0.2
						c0.1,0.2,0.3,0.4,0.5,0.6C90.2,38.8,90.5,38.9,90.7,39.1z M94.5,37.9c-0.1-0.1-0.1,0-0.2,0c-0.2,0-0.5,0-0.2,0.3c0,0,0,0,0,0.1
						c-0.1,0.1-0.5,0-0.6-0.1c-0.1-0.2-0.3-0.3-0.5-0.1c-0.2,0.2-0.3,0.4-0.4,0.6c0,0.1-0.1,0.2,0,0.3c0.2,0.1,0.4,0.2,0.7,0.2
						c0.3-0.1,0.7-0.1,1,0.1c0.2,0.2,0.5,0.1,0.7,0.2c0.1,0,0.2,0,0.2-0.1c0.1-0.1,0-0.1-0.1-0.2c-0.2-0.2-0.4-0.4-0.7-0.5
						c-0.2-0.1-0.3-0.2-0.1-0.4C94.5,38,94.5,38,94.5,37.9z M89.3,36.1c0.1,0,0.2-0.1,0.3-0.1c0.2,0.2,0.4,0,0.6,0
						c0.1,0,0.2-0.1,0.3-0.1c0.3,0.1,0.5,0,0.5-0.3c0-0.2,0.1-0.3,0.3-0.2c0.1,0,0.1,0.1,0.2,0c0.1-0.1,0-0.1-0.1-0.2
						c-0.2-0.1-0.1-0.2,0.1-0.2c0.2,0,0.3,0,0.5,0c0.1,0,0.2,0,0.2-0.1c0-0.1-0.1-0.1-0.2-0.1c-0.2,0-0.4,0-0.6,0.1
						c-0.2,0-0.4,0-0.5-0.2c-0.1-0.2,0-0.5,0.2-0.6c0.1-0.1,0.2-0.1,0.3-0.2c0.1,0,0.1-0.1,0-0.1c-0.2,0-0.4-0.1-0.5,0.1
						c-0.1,0.2-0.2,0.2-0.4,0.3c-0.4,0.2-0.4,0.4-0.1,0.7c0.1,0.1,0,0.1,0,0.2c-0.1,0.1-0.2,0.1-0.2,0.2c0,0.2,0,0.4-0.3,0.4
						c0,0-0.1,0.1,0,0.1c0,0.1,0,0.1-0.1,0.1C89.6,35.8,89.4,35.9,89.3,36.1z M97.5,40.6c0.4,0.1,0.4,0,0.4-0.2
						c0-0.2-0.1-0.3-0.2-0.4c-0.1-0.1-0.2-0.2,0-0.2c0.1,0,0.2,0,0.1-0.1c0-0.1-0.1-0.2-0.2-0.1c0,0-0.1,0-0.1,0
						c0-0.2-0.3-0.3-0.4-0.5c-0.2-0.2-0.2-0.3,0.1-0.3c0.2,0,0.2-0.1,0.1-0.2c-0.1-0.1-0.3-0.2-0.4-0.1c-0.1,0.1-0.3,0.1-0.4,0.2
						c-0.1,0-0.2,0.1-0.1,0.2c0.1,0.3,0.3,0.5,0.5,0.7c0.3,0.3,0.3,0.3,0.1,0.6c0,0.1-0.1,0.2,0,0.2C97.2,40.4,97.4,40.6,97.5,40.6z
						"/>
					<path class="st3" d="M76.5,39.2c-0.2,0.1-0.3,0.3-0.5,0.4c-0.3,0.2-0.6,0.3-0.9,0.4c-0.4,0.2-0.6,0.4-1,0.8
						c0.1-0.1,0.3-0.2,0.4-0.4c0.1-0.1,0.3-0.2,0.3-0.1c0.1,0.1,0,0.2-0.1,0.3c-0.1,0.2-0.1,0.3,0,0.3c0.1,0.1,0.3,0,0.4-0.1
						c0,0,0.1-0.1,0.1-0.1c0.1-0.1,0.1-0.2,0.2-0.1c0.1,0,0,0.1-0.1,0.2c-0.3,0.3-0.7,0.5-1,0.8c-0.1,0.1-0.2,0.1-0.2,0
						c0-0.2-0.1-0.1-0.1,0c-0.2,0.2-0.4,0.3-0.6,0.5c-0.1,0.1-0.2,0.3-0.2,0.4c0,0.2-0.1,0.3-0.2,0.4c-0.3,0.2-0.5,0.4-0.7,0.8
						c-0.1,0.2-0.4,0.5-0.4,0.7c-0.1,0.3-0.2,0.6-0.5,0.9c-0.1,0.2-0.3,0.4-0.5,0.5c-0.2,0.2-0.3,0.5-0.5,0.8
						c-0.1,0.2-0.1,0.3,0,0.5c0,0.2,0.1,0.4,0,0.7c0,0.1,0,0.2-0.1,0.2c-0.1,0-0.1,0-0.1,0c-0.1-0.1-0.1-0.2-0.1-0.4
						c0.1-0.3-0.1-0.3-0.3-0.2c-0.2,0.1-0.4,0.1-0.6,0.3c-0.1,0.1-0.2,0.1-0.3,0.3c-0.1,0.2-0.2,0.3-0.4,0.3c-0.2,0-0.3,0.2-0.5,0.4
						c0,0-0.1,0.1-0.1,0.1c-0.3,0.4-0.7,0.9-0.7,1.4c0,0.1-0.1,0.4-0.1,0.5c-0.1,0.4,0.1,0.7,0.3,0.8c0.1,0,0.2,0,0.3-0.1
						c0.3-0.3,0.6-0.5,0.7-0.9c0-0.2,0.4-0.5,0.6-0.5c0.1,0,0,0.1,0,0.2c-0.1,0.3-0.2,0.7-0.3,1c-0.1,0.3,0,0.2,0.2,0.1
						c0.1-0.1,0.3-0.2,0.4-0.3c0.3-0.2,0.4-0.1,0.3,0.2c0,0.2-0.1,0.4-0.1,0.6c0,0.2,0.1,0.3,0.2,0.3c0.1,0,0.2,0,0.3-0.1
						c0.2-0.2,0.4-0.4,0.6-0.3c0.1,0.1,0.2-0.1,0.2-0.2c0.1-0.5,0.5-0.8,0.8-1.1c0.1-0.1,0.1-0.2,0.2-0.2c0.1,0,0,0.1,0,0.2
						c0,0.1-0.1,0.3-0.1,0.4c0.1-0.1,0.1-0.1,0.1-0.2c0.1-0.1,0.1-0.3,0.2-0.4c0.2-0.3,0.2,0,0.3,0c0.1,0,0.2,0,0.3-0.1
						c0.1-0.1,0.3-0.1,0.4-0.1c0,0,0.1,0,0.1,0c0.4-0.4,0.5-0.2,0.8-0.1c0.2,0.1,0.4,0.2,0.6,0.3c0.2,0.1,0.4,0.1,0.7-0.1
						c0.4-0.2,0.6,0,0.7,0.3c0.1,0.3,0.3,0.5,0.5,0.7c0,0,0,0,0.1,0c0.4-0.2,0.6-0.1,0.8,0c0.1,0.1,0.4,0,0.6-0.1
						c0.3-0.1,0.4-0.1,0.6,0c0.2,0.1,0.3,0.2,0.6,0.2c0.2,0,0.3,0.3,0.2,0.5c-0.2,0.4-0.4,0.8-0.6,1.3c-0.1,0.1-0.1,0.2-0.1,0.3
						c0,0.5-0.1,1-0.2,1.5c-0.1,0.3-0.3,0.6-0.6,0.8c-0.3,0.2-0.6,0.5-0.8,0.7c-0.1,0.1-0.2,0.2-0.1,0.4c0.1,0.3,0,0.7-0.4,1
						c-0.1,0.1-0.1,0.1-0.1,0.2c0,0.1-0.1,0.3-0.1,0.4c-0.2,0.6-0.4,0.7-1,0.7c0.1,0.1,0.1,0.2,0.2,0.3c0.2,0.1,0.1,0.5-0.2,0.7
						c-0.1,0-0.1,0.1-0.2,0.1c-0.2,0.1-0.3,0.2-0.3,0.4c0,0.2-0.1,0.2-0.3,0.3c-0.1,0-0.1,0-0.2,0.1c0,0.1,0,0.1,0.1,0.1
						c0.2,0,0.2,0.1,0.1,0.3c-0.1,0.2-0.1,0.3-0.1,0.5c-0.1,0.2,0,0.3,0.2,0.3c0.1,0,0.1,0.1,0.1,0.3c-0.3,0.7-0.1,0.9,0.5,0.9
						c0.1,0,0.3-0.1,0.2,0.1c0,0.1-0.2,0.3-0.3,0.3c-1,0.3-1.5,0-2-0.5c0,0,0-0.1,0-0.2c0-0.1,0-0.1,0-0.1c-0.2,0-0.2-0.2-0.2-0.4
						c0,0,0-0.1,0-0.1c0.3-0.3,0.1-0.4,0.1-0.5c-0.1,0.1,0,0.2-0.1,0.2c-0.1,0-0.1,0-0.1-0.1c-0.1-0.3-0.1-0.6-0.2-0.9
						c-0.1-0.1,0-0.5,0-0.7c0-0.3,0-0.6-0.1-0.8c-0.1-0.2-0.1-0.4-0.1-0.7c0-0.6,0-1.2-0.2-1.7c0-0.1-0.1-0.2-0.2-0.2
						c-0.1,0-0.1,0-0.2,0c-0.5,0-0.8-0.3-1.1-0.6c-0.2-0.3-0.4-0.6-0.8-0.8c-0.2-0.1-0.2-0.3,0-0.6c0-0.1,0.1-0.1,0-0.2
						c-0.1-0.2,0-0.6,0.1-0.9c0.5-0.8,0.6-1.3,0.3-1.8c0-0.1-0.1-0.1-0.2,0C70.1,51.8,70,51.9,70,52c0,0.2-0.1,0.2-0.2,0.2
						c-0.2,0-0.5,0.1-0.7,0c-0.2-0.1-0.2-0.3-0.4-0.4c-0.1,0-0.1-0.1-0.2,0c-0.3,0.1-0.7,0.3-0.9,0.1c-0.1-0.1-0.2,0-0.3,0.1
						c-0.4,0.4-0.7,0.4-1,0.5c-0.2,0-0.4,0-0.6,0.1c-0.1,0-0.2-0.1-0.1-0.3c0.1-0.3,0-0.5-0.1-0.5c-0.2-0.1-0.4-0.1-0.3-0.4
						c0-0.1,0-0.1-0.1-0.1c-0.1-0.1-0.2-0.2-0.2-0.5c0-0.1,0-0.2-0.1-0.1c-0.1,0.1-0.1,0.2-0.1,0.3c0,0,0,0.1,0,0.1
						c0.1,0.3,0.3,0.6,0.4,0.9c0,0.1,0.1,0.1,0,0.2c-0.1,0.1-0.1,0-0.1,0c-0.1-0.1-0.2-0.1-0.2-0.3c0-0.1-0.1-0.1-0.1-0.1
						c-0.1,0-0.2,0-0.1-0.3c0,0,0-0.1,0-0.1c-0.1-0.1-0.1-0.4-0.1-0.6c0-0.2-0.1-0.3-0.2-0.2c-0.1,0.1-0.2,0-0.2-0.2
						c0-0.3-0.1-0.5-0.1-0.8c0-0.1,0.1-0.2,0.1-0.4c0.2-0.7,0.6-1.5,0.8-2.2c0-0.2,0-0.3-0.1-0.3c-0.1,0-0.3,0,0-0.3
						c0.1-0.1,0-0.1,0-0.2c0-0.1,0-0.3,0-0.4c0-0.2,0.1-0.4-0.1-0.2c-0.1,0.1-0.1,0-0.1-0.1c0-0.1,0-0.2,0-0.3
						c0-0.4-0.1-0.4-0.4-0.2c0,0,0,0,0,0c-0.4,0.1-0.7,0.7-1.1,1.1c0,0.1-0.1,0.1-0.1,0.1c0-0.1,0.1-0.2,0.1-0.2c0,0,0,0,0,0
						c-0.1,0.2-0.2,0.4-0.4,0.5c0,0-0.1,0.1-0.1,0.1c-0.1,0.5-0.4,0.7-0.6,1.1c-0.1,0.2-0.2,0.3-0.3,0.5c-0.4,0.8-0.9,1.5-1.4,2.2
						c0,0,0,0-0.1,0.1c0.6-1,1.1-1.8,1.6-2.7c0-0.1-0.1,0-0.1,0c-0.1,0-0.2,0.4-0.2,0c0,0,0,0,0,0c-0.2,0.3-0.1,0-0.1-0.2
						c0.1-0.3,0.3-0.6,0.4-0.9c0.2-0.3,0.4-0.6,0.6-0.8c0.1-0.1,0.1-0.1,0.1-0.2c0-0.1-0.1,0-0.1,0.1c-0.1,0.1-0.1,0.1-0.2,0.2
						c0,0-0.1,0.1-0.1,0.1c0-0.1,0-0.2,0.1-0.3c0.2-0.3,0.4-0.7,0.7-0.8C63,45,63,44.9,63,44.8c0-0.1,0-0.2,0.1-0.4
						c0.5-0.6,1-1.4,1.6-2c0.1-0.1,0.2-0.2,0.3-0.2c0.4-0.2,0.8-0.5,1.2-0.8c0.2-0.2,0.4-0.3,0.6-0.3c0.1,0,0.1,0,0.2-0.1
						c0.4-0.5,0.9-0.7,1.3-1.2c0.2-0.2,0.3-0.1,0.4-0.2c0.3-0.2,0.6-0.3,1-0.5c0.1-0.1,0.2-0.1,0.1,0.2c0.3-0.2,0.5-0.3,0.7-0.5
						c0.1-0.1,0.2-0.3,0.4-0.4c0.1-0.1,0.2-0.2,0.2-0.1c0.3,0.1,0.5-0.2,0.8-0.3c0,0,0.1-0.1,0.1-0.1c0.1-0.3,0.3-0.4,0.5-0.5
						c0.1,0,0.1,0,0.2-0.1c0.2-0.4,0.6-0.7,0.8-1.1c0.2-0.3,0.4-0.3,0.7-0.4c-0.2,0.3-0.3,0.4-0.5,0.5c-0.1,0.1-0.3,0.2-0.3,0.3
						c0,0.1-0.1,0.4,0.1,0.4c0.1,0,0.1,0.1,0,0.2c0,0-0.1,0.1,0,0.1c0,0,0.1,0,0.1-0.1c0.1-0.1,0.2-0.3,0.3-0.4
						c0.1-0.1,0.2-0.2,0.2-0.3c0-0.1-0.1,0-0.2,0c-0.1,0-0.2-0.1-0.1-0.2c0.2-0.3,0.5-0.6,0.8-0.8c0,0.1-0.1,0.1-0.1,0.2
						c0,0,0,0,0.1,0c0.4-0.4,0.8-0.5,1.2-0.7c0,0,0.1,0,0.1,0c0.1,0.2,0.4,0.1,0.6,0.1c0.2,0,0.3,0.1,0.2,0.3
						c-0.1,0.1,0,0.1,0.1,0.1c0.1,0,0.2,0,0.2,0c0.1,0,0.2,0,0.2,0.1c0,0.1-0.1,0.2-0.2,0.3c-0.2,0.2-0.4,0.3-0.5,0.1
						c0-0.1-0.1,0-0.2,0.1c-0.1,0.1,0,0.2,0,0.2c0.1,0.1,0.2,0.1,0,0.3c-0.1,0.2-0.2,0.2-0.3,0.2c0,0-0.1,0-0.1,0c0,0,0,0,0,0.1
						c0,0.1,0.2,0.1,0.1,0.2c-0.1,0.1-0.2,0.1-0.3,0.1c-0.2,0-0.4,0.1-0.5-0.1c-0.1-0.1-0.2-0.1-0.4,0.1c-0.1,0.1-0.2,0.2-0.2,0.1
						c0,0,0,0,0-0.1c0.1-0.1,0.2-0.2,0.2-0.2c0.4,0,0.6-0.4,0.8-0.7c0.1-0.1,0.1-0.1,0.1-0.2c0-0.1-0.1,0-0.2,0.1
						c-0.1,0.1-0.2,0.2-0.3,0.3c-0.1,0-0.1,0.1-0.1,0c0-0.1,0-0.1,0.1-0.2c0,0,0.1-0.1,0.1-0.1c0.1-0.1,0.2-0.1,0.2-0.2
						c0-0.1-0.1-0.1-0.2-0.1c-0.2,0.1-0.4,0.2-0.6,0.3c0,0-0.1,0.1-0.1,0.1c-0.1,0.6-0.5,0.9-1,1.1c0.1,0.1,0.2,0.1,0.3,0.1
						c0.1,0,0.1,0,0.1,0.1c0,0.1-0.1,0.1-0.2,0.1c-0.1,0-0.3,0.1-0.4,0.2c-0.1,0.1-0.2,0.2-0.3,0.1c-0.1-0.1,0.1-0.1,0.1-0.2
						c0.1-0.1,0.1-0.2,0.2-0.3c-0.7,0.6-1.3,1.2-1.9,1.9c-0.1,0.1-0.2,0.3-0.3,0.4c-0.1,0.1,0,0.5,0.1,0.4c0.3-0.2,0.5,0,0.7-0.1
						c0,0,0.1,0,0.1,0c0.2-0.1,0.4-0.2,0.3,0.2c0,0.1,0.1,0.1,0,0.3c0,0,0,0.1,0.1,0.1c0.1,0,0.1-0.1,0.2-0.1
						c0.2-0.2,0.2-0.3,0.2-0.5c0-0.2,0.1-0.4,0.3-0.5c0.2-0.1,0.3-0.3,0.4-0.5c0.1-0.2,0.2-0.3,0.1-0.5c0,0,0-0.1,0-0.2
						c0.2-0.2,0.3-0.4,0.3-0.6c0.1-0.2,0.2-0.3,0.4-0.4c0.3-0.1,0.6-0.2,0.8-0.1c0.1,0,0.1,0,0.1,0.2c-0.1,0.1-0.1,0.2,0,0.3
						c0.1,0.1,0.2-0.1,0.3-0.1c0.1-0.1,0.3-0.2,0.4-0.4c0.1-0.1,0.2-0.1,0.2,0c0,0.2,0.1,0.3,0.1,0.6c-0.1,0.2,0.1,0.2,0.3,0.2
						c0.3,0.1,0.4,0.3,0.2,0.6c-0.2,0.4-0.2,0.4,0.2,0.5c0.1,0,0.1,0.3,0.1,0.4c-0.1,0.1-0.2,0.2-0.3,0.2c-0.2-0.1-0.4,0-0.6,0.1
						c-0.1,0-0.1,0.1-0.2,0c0-0.1,0-0.1,0.1-0.2C76.1,39.7,76.3,39.5,76.5,39.2C76.5,39.2,76.5,39.2,76.5,39.2z"/>
					<path class="st3" d="M114,64.3c0-0.1,0.2,0,0.2-0.2c-0.1,0-0.2,0-0.3,0c-0.1,0-0.1,0-0.2-0.2c-0.1-0.5-0.5-1.1-0.9-1.2
						c-0.4-0.2-0.8-0.5-1.1-0.4c-0.1,0-0.1-0.1-0.2-0.1c-0.3-0.2-0.5-0.3-0.7-0.3c-0.2,0-0.4-0.1-0.5-0.3c-0.1-0.1-0.2-0.2-0.1-0.3
						c0.3-0.1,0.2-0.5,0.3-0.9c0-0.2,0-0.4-0.1-0.6c-0.1-0.2,0.1-0.2,0.1-0.4c0-0.1,0.1-0.2,0.1-0.4c0-0.1,0.1,0,0.2,0
						c0.3-0.1,0.6,0.1,0.9,0.2c0.2,0.1,0.4,0.2,0.5,0c0.1-0.2,0.3-0.3,0.5-0.2c0.1,0,0.3,0,0.4-0.1c0.1-0.1,0.2,0.1,0.3,0.2
						c0.2,0.4,0.3,0.4,0.4,0.2c0.1-0.1,0.2-0.2,0.4-0.1c0.1,0.1,0.1,0,0.1-0.1c0-0.2,0-0.1,0.1,0c0.2,0.3,0.3,0.5,0.5,0.6
						c0,0,0.1,0.1,0.1,0.1c0,0.1,0,0.1,0,0.1c0,0,0,0,0,0c-0.3,0.2-0.2,0.2,0,0.7c0.1,0.2,0.2,0.4,0.3,0.6c0.1,0.2,0.2,0.2,0.3,0.2
						c0.2-0.1,0.2-0.4,0.2-0.6c0-0.1,0-0.4,0.2-0.3c0.1,0.1,0.1,0.4,0.1,0.6c0,0.1,0,0.3,0.2,0.5c0.1,0.1,0.1,0.3,0.1,0.4
						c0,0.4,0.1,0.8,0.3,1.2c0,0.1,0.1,0.1,0.1,0.2c0.1,0.4,0.3,1,0.4,1.4c0,0.1,0,0.2,0,0.2c-0.1,0.4-0.2,0.9-0.5,0.9
						c-0.3,0-0.6,0.2-0.9,0.3c0,0,0,0-0.1,0c-0.2-0.2-0.4-0.3-0.6-0.2c0,0,0,0,0,0c-0.2-0.4-0.4-0.3-0.6-0.6
						c-0.3-0.3-0.3-0.5-0.3-0.8c0-0.1,0-0.1,0-0.2c-0.1-0.1-0.1,0-0.1,0c-0.1,0-0.1,0.1-0.2-0.1c0-0.1,0.1,0,0.1,0c0,0,0,0,0,0
						c0.1,0,0.2,0.1,0.1-0.1C114.1,64.3,114,64.4,114,64.3z"/>
					<path class="st3" d="M85.8,31.1c-0.3,0.2-0.6,0.4-0.9,0.5c-0.2,0.1-0.3,0.1-0.2,0.3c0,0,0,0.1,0,0.1c-0.2,0.2-0.1,0.5-0.4,0.6
						c-0.2,0.2-0.4,0.3-0.4,0.6c0,0.1-0.1,0.2-0.2,0.2c-0.7,0.3-1.4,0.5-2,1.1c-0.2,0.2-0.6,0.3-0.8,0.4c-0.2,0.1-0.3,0.2-0.4,0.3
						c-0.2,0.3-0.5,0.6-0.7,1c0,0.1-0.1,0.1-0.2,0.2c-0.3,0.1-0.8,0-0.9-0.2c-0.1-0.3-0.1-0.6-0.1-1c0-0.2,0.2-0.4,0.5-0.6
						c-0.1-0.1-0.3,0.1-0.3-0.1c0-0.2,0.2-0.1,0.3-0.3c-0.3,0-0.2-0.1-0.1-0.3c0.1-0.2,0-0.2-0.1-0.3c-0.2-0.1-0.4,0-0.7,0
						c-0.2,0-0.4,0.1-0.5,0.1c-0.1,0-0.2,0-0.2-0.1c0-0.1,0.2-0.2,0.3-0.2c0.2-0.1,0.5-0.2,0.7-0.3c0.1,0,0.3-0.1,0.2-0.2
						c0-0.1,0.1-0.1,0.2-0.1c0.6-0.3,1.3-0.6,1.9-0.7c0.6-0.1,1.1-0.5,1.7-0.6c0.6-0.1,1.3-0.3,1.9-0.3
						C84.8,31.2,85.3,31.4,85.8,31.1z"/>
					<path class="st3" d="M115.3,59.5c0.2-0.1,0.1-0.5-0.2-0.9c-0.2-0.2-0.3-0.5-0.5-0.6c-0.1-0.1-0.2-0.2-0.2-0.3
						c0-0.2-0.1-0.3-0.2-0.5c-0.1-0.1-0.1-0.2-0.1-0.2c0-0.1,0.1,0,0.2,0c0.1,0.1,0.2,0.1,0.3,0.2c0.1,0.1,0.2,0.2,0.1,0.3
						c0,0.1,0,0.2,0.1,0.3c0.2,0.3,0.2,0.4,0.4,0.3c0.1-0.1,0.2,0,0.4,0.2c0.3,0.4,0.6,0.9,0.9,1.3c0.1,0.1,0.1,0.2,0.2,0.3
						c0,0.2,0.1,0.3,0.2,0.5c0.1,0.1,0.2,0.4,0.1,0.4c-0.1,0,0,0.1,0,0.2c0.1,0.2,0.2,0.4,0.3,0.6c0.1,0.1,0.1,0.2,0.1,0.3
						c0,0.1-0.1-0.1-0.2-0.2c-0.2-0.2-0.3-0.5-0.4-0.8c-0.2-0.4-0.3-0.5-0.4-0.5c-0.1,0.1-0.3-0.1-0.5-0.3
						C115.6,59.9,115.5,59.7,115.3,59.5z"/>
					<path class="st3" d="M111.1,55.3c-0.2-0.2-0.5-0.5-0.7-0.6c-0.1,0-0.2-0.2-0.1-0.3c0-0.1,0-0.3-0.1-0.5c-0.1-0.2-0.1-0.3,0-0.5
						c0,0,0-0.1,0.1,0c0.2,0.2,0.2,0,0.3,0c0.2-0.1,0.4-0.1,0.6-0.1c0.1,0,0.3,0,0.4-0.2c0-0.1,0.1,0,0.2,0.1
						c0.1,0.1,0.1,0.2,0.2,0.3c0.1,0.2,0.1,0.3,0,0.4c-0.2,0.1-0.2,0.3,0,0.6c0,0.1,0.1,0.1,0,0.1c-0.3-0.1-0.1,0.4-0.4,0.4
						c-0.1,0,0,0.1,0,0.2C111.4,55.5,111.3,55.5,111.1,55.3z"/>
					<path class="st3" d="M79.2,32.4c-0.5,0.3-1,0.5-1.5,0.9c-0.3,0.2-0.6,0.4-0.9,0.6c-0.3,0.3-0.7,0.5-1.1,0.7
						c-0.2,0.1-0.5,0.1-0.8,0.5c0.3-0.2,0.6-0.3,0.8-0.3c0.1,0,0.1,0,0.1,0c0,0.1-0.1,0.1-0.1,0.1c-0.4,0.1-0.8,0.5-1.2,0.5
						c-0.2,0-0.3,0-0.6,0.3c-0.2,0.2-0.5,0.2-0.7,0.3c-0.1,0-0.1,0-0.1-0.1c0-0.1,0.1-0.3,0.2-0.3c0.1,0,0.2-0.1,0.3,0
						c0.1,0.1,0.2,0,0.3-0.1c0.1-0.3,0.3-0.3,0.4-0.3c0.3,0,0.6-0.3,0.9-0.5c-0.1-0.1-0.2,0-0.2,0c-0.1,0-0.2,0-0.2-0.2
						c0-0.2,0.1-0.1,0.2-0.2c0.5-0.5,1-0.6,1.6-0.9c0.5-0.3,1.1-0.6,1.6-0.7C78.5,32.6,78.9,32.4,79.2,32.4z"/>
					<path class="st3" d="M96.2,53.7c0-0.2,0-0.3,0.1-0.4c0.1-0.2,0.1-0.4,0.1-0.6c-0.1-0.3,0-0.5,0.4-0.6c0.3,0,0.5-0.2,0.6-0.4
						c0.1-0.1,0.2-0.2,0.3-0.2c0.1,0.1,0.1,0.2,0.1,0.4c0.1,0.3-0.2,0.4-0.2,0.7c-0.1,0.4-0.3,0.8-0.4,1.2c0,0.1-0.1,0.2-0.1,0.3
						c-0.1,0.3-0.3,0.4-0.6,0.3C96.3,54.3,96.1,54.1,96.2,53.7z"/>
					<path class="st3" d="M69.9,38.2c-0.2,0.2-0.3,0.4-0.5,0.6c-0.1,0.1-0.2,0.1-0.2,0.1c0,0-0.1,0-0.1-0.1c0-0.1,0.1-0.1,0.1-0.2
						c0.2-0.2,0.4-0.4,0.6-0.7c0.1-0.3,0.8-0.5,1-0.5c0,0,0.1,0,0.2,0c0.1,0,0.2-0.1,0.3-0.1c0.2,0,0.3-0.1,0.5-0.3
						c0-0.1,0.1-0.1,0.2-0.1c0.1,0,0.1,0.1,0,0.2c0,0.1-0.1,0.3,0,0.4c0.1,0.1-0.2,0.4-0.3,0.4c-0.3,0.1-0.7,0.3-1,0.6
						c0,0-0.1,0.1-0.1,0.1c-0.2,0.3-0.4,0.3-0.6,0.3c-0.1,0-0.1-0.1,0-0.2C69.8,38.6,69.9,38.4,69.9,38.2z"/>
					<path class="st3" d="M107.4,51.1c0.2,0.2,0.5,0.5,0.7,0.7c0.2,0.4,0.5,0.7,0.8,1.1c0.1,0.1,0.2,0.2,0.1,0.3
						c0,0.1,0,0.1,0.1,0.2c0.2,0.2,0.2,0.4,0.4,0.6c0,0,0,0.1,0,0.1c-0.1,0.1-0.1,0.3-0.1,0.4c-0.1,0.1-0.2,0.1-0.3-0.1
						c-0.3-0.4-0.6-0.7-0.7-1.1c-0.1-0.4-0.2-0.8-0.4-1.1c-0.2-0.3-0.3-0.7-0.6-1c0-0.1-0.1-0.1-0.1-0.2
						C107.3,51,107.3,51,107.4,51.1z"/>
					<path class="st3" d="M112.5,53.8c0-0.2,0.1-0.3,0.3-0.2c0.1,0.1,0.2,0.1,0.2,0c0-0.1,0-0.3-0.1-0.5c0,0-0.1-0.1-0.1-0.1
						c0,0,0,0,0,0.1c0.1,0.1,0.1,0.2,0,0.2c-0.1,0-0.2-0.1-0.2-0.3c0-0.1-0.1-0.2-0.1-0.2c0-0.1-0.1-0.2,0-0.2
						c0.1,0,0.1,0.1,0.2,0.1c0.1,0.1,0.1,0.1,0.2,0.1c0,0,0-0.1-0.1-0.2c-0.1-0.1-0.1-0.2-0.2-0.4c-0.1-0.1-0.1-0.2-0.2-0.2
						c-0.1,0-0.2-0.1-0.2-0.2c0-0.1-0.1-0.2-0.1-0.3c-0.1-0.1-0.1-0.3-0.1-0.3c0.1-0.1,0.1-0.2,0.1-0.4c0-0.1,0-0.1,0.1-0.1
						c0.1,0,0.1,0.1,0.1,0.2c0,0.2,0.1,0.4,0,0.5c-0.1,0.2-0.1,0.3,0.2,0.6c0.1,0.1,0.2,0.2,0.2,0.4c0,0,0,0.1,0,0.1
						c0.3,0.3,0.2,0.5,0.3,0.7c0.1,0.2,0.1,0.4,0.2,0.6c0.1,0.3-0.1,0.3-0.1,0.5c0,0.1-0.1,0-0.1-0.1c-0.1-0.1-0.1-0.2-0.2-0.3
						C112.7,53.9,112.7,53.8,112.5,53.8z"/>
					<path class="st3" d="M120,71.2C120,71.3,120,71.3,120,71.2c-0.3,0-0.4,0.1-0.6-0.1c0,0-0.1-0.1-0.2-0.1
						c-0.3-0.3-0.4-0.3-0.6-0.3c0,0,0,0,0,0c-0.3-0.3-0.5-0.1-0.8-0.3c-0.1,0-0.1,0-0.2-0.1c-0.1-0.1-0.1-0.2-0.1-0.3
						c0-0.1,0.1,0,0.1,0c0.3,0.1,0.6,0.2,0.9,0.3c0.1,0.1,0.2,0.1,0.3,0.1c0.1,0,0.3,0.1,0.4,0.4c0.1,0.1,0.1,0.1,0.1,0.1
						c0,0,0.1-0.1,0-0.2c0-0.1,0-0.2,0-0.1c0.2,0.1,0.2-0.1,0.2-0.3c0-0.1,0-0.3,0.1-0.2c0.1,0.2,0.1,0.3,0.1,0.4
						C119.7,70.7,119.8,71,120,71.2z"/>
					<path class="st3" d="M86.7,35.2c0,0.1-0.3,0.3,0,0.3c0,0,0,0.1,0,0.1c-0.2,0.4,0.3,0.5,0.5,0.8c0,0.1,0.2,0,0.2,0.2
						c-0.1,0.1,0,0.3-0.3,0.4c0,0-0.1,0-0.1,0c-0.3,0-0.6,0-0.8,0.2c0,0-0.1,0-0.2,0c0-0.1,0.3-0.3,0.1-0.4c0.2-0.1,0.1-0.2,0.2-0.3
						c0.2-0.1,0.2-0.2,0-0.3C86.1,36.1,86,36,86,35.7c0-0.2,0.2-0.4,0.5-0.4C86.6,35.3,86.6,35.2,86.7,35.2z"/>
					<path class="st3" d="M113.3,57.9c-0.3-0.1-0.4,0-0.6,0c0-0.2,0.2-0.1,0.2-0.2c0-0.1-0.1-0.1-0.1-0.1c-0.3-0.1-0.6-0.4-0.9-0.6
						c-0.6-0.4-1.3-0.9-1.9-1.5c-0.2-0.2-0.4-0.5-0.6-0.6c-0.1,0-0.1-0.1,0-0.1c0.1,0,0.3,0,0.4,0.2c0.2,0.3,0.3,0.5,0.5,0.4
						c0,0,0.1,0,0.1,0.1c0.1,0.1,0.2,0.2,0.3,0.3c0.1,0.1,0.2,0.1,0.1,0.2c0,0,0,0.1,0.1,0.1c0.2,0.2,0.3,0.3,0.5,0.4
						c0.2,0.1,0.4,0.3,0.5,0.5c0.1,0,0.1,0.1,0.2,0.2c0.3,0.1,0.6,0.5,0.9,0.6C113.2,57.7,113.2,57.7,113.3,57.9z"/>
					<path class="st3" d="M112.2,56.2c0,0.1,0,0.2,0,0.2c0,0-0.1,0-0.1,0c-0.1-0.1-0.1-0.1-0.1-0.2c-0.1-0.5,0-0.9,0.1-1.2
						c0-0.1,0.1-0.1,0.3,0c0.2,0.2,0.4,0.4,0.6,0.4c0,0,0.1,0,0.1,0.1c0,0.1,0,0.1,0,0.1c0,0.1-0.3,0-0.4-0.2
						c-0.1-0.1-0.2-0.2-0.2-0.3c-0.1-0.1-0.2-0.1-0.2-0.1c0,0.1,0,0.2,0,0.3c0.1,0.1,0.1,0.1,0.2,0.2c0.1,0,0.2,0,0.2,0.2
						c0.1,0.1-0.1,0.1-0.1,0.1c-0.1,0.1,0,0.3,0.1,0.4c0,0.1,0.1,0.3,0.1,0.4c0,0.1,0,0.1-0.1,0.1c-0.1,0-0.1-0.1-0.2-0.2
						c0-0.1-0.1-0.2-0.1-0.4c0-0.1,0-0.2-0.1-0.2c-0.1,0,0,0.1,0,0.1C112.2,56.1,112.2,56.1,112.2,56.2z"/>
					<path class="st3" d="M70.4,37.2c0.3-0.2,0.5-0.5,0.8-0.7c0.1-0.1,0.2-0.3,0.2,0c0,0.1,0.4,0,0.6-0.2c0.1-0.1,0.1-0.1,0.2-0.2
						c0.2-0.2,0.2-0.1,0.2,0c0,0.1-0.1,0.2-0.1,0.2c-0.3,0.2-0.6,0.4-0.9,0.7c-0.2,0.1-0.3,0.1-0.5,0.1
						C70.8,37.2,70.6,37.2,70.4,37.2z"/>
					<path class="st3" d="M84,34.7c-0.1,0-0.2,0-0.2-0.1c-0.1,0-0.2-0.2-0.3-0.2c-0.1,0-0.2,0-0.2-0.1c0-0.1,0.2-0.2,0.2-0.2
						c0.4,0.1,0.8-0.1,1.1-0.1c0.1,0,0.2,0,0.3,0.1c0,0.1,0,0.2-0.1,0.2C84.5,34.5,84.3,34.6,84,34.7z"/>
					<path class="st3" d="M69.9,48.7c0.4-0.2,0.8-0.5,1.1-0.3c0,0,0.1,0,0.1,0c0.1,0,0.2-0.1,0.2,0c0,0.1-0.1,0.2-0.2,0.2
						c-0.1,0.1-0.2,0.1-0.3,0.2c-0.2,0.1-0.3,0.2-0.3,0c0-0.1-0.1-0.2-0.2-0.1c-0.1,0-0.2,0.1-0.3,0.1c-0.2,0-0.3,0.1-0.4,0.3
						c0,0.1-0.1,0.2-0.2,0.2c-0.1,0,0-0.1,0.1-0.2C69.7,48.9,69.8,48.8,69.9,48.7z"/>
					<path class="st3" d="M85.4,36.9c-0.1,0-0.2,0-0.2,0c0-0.1,0-0.1,0.1-0.2c0,0,0.1,0,0.1-0.1c-0.2-0.3,0.2-0.3,0.3-0.5
						c0.1-0.2,0.3-0.1,0.4-0.1c0,0,0.1,0,0.1,0.1c-0.1,0.2,0,0.4-0.2,0.6C85.7,36.8,85.5,36.9,85.4,36.9z"/>
					<path class="st3" d="M71.9,48.3c0.2-0.1,0.3-0.2,0.5-0.1c0,0,0.1,0,0.1,0.1c0,0.1-0.1,0.1-0.1,0.1c-0.2,0.1-0.3,0.2-0.5,0.4
						c-0.2,0.2-0.3,0.1-0.5,0.2c-0.1,0,0-0.1,0-0.1c0.2-0.1,0.3-0.2,0.3-0.4C71.7,48.3,71.8,48.3,71.9,48.3z"/>
					<path class="st3" d="M114.7,66.2c0.1,0.2,0.3,0.3,0.4,0.4c0.1,0,0.1,0.1,0,0.1c-0.1,0.1-0.2,0.2-0.4,0.1
						c-0.2-0.1-0.2-0.2-0.2-0.4c0-0.1,0.1-0.2,0.1-0.3C114.6,66.2,114.6,66.1,114.7,66.2z"/>
					<path class="st3" d="M72.9,36.2c0.1,0,0.2-0.2,0.3,0c0,0.1,0,0.2-0.2,0.3c-0.3,0.3-0.5,0.4-0.6,0.3c0,0-0.1-0.1,0-0.1
						C72.6,36.5,72.7,36.4,72.9,36.2z"/>
				</g>
			</g>
		</g>
	</g>
	
		<radialGradient id="SVGID_00000026123873723060872500000017833828366938041235_" cx="89.7797" cy="32.4413" r="37.3989" gradientUnits="userSpaceOnUse">
		<stop  offset="2.638395e-02" style="stop-color:#FFFFFF"/>
		<stop  offset="1" style="stop-color:#000000"/>
	</radialGradient>
	
		<circle style="opacity:0.6;fill:url(#SVGID_00000026123873723060872500000017833828366938041235_);" cx="90.1" cy="48.5" r="26.2"/>
	<g>
		<g>
			<path d="M110.8,68.3c-0.6,0.6-3,4.4-9.4,6.7c-6.2,2.2-13.6,5.5-13.7,7.8c0,1.3,1.1,2.5,2.3,2.6c1.7,0.1,3.9-2.1,5.8-2.9
				c4.1-1.7,8.9-0.8,11,5.5c0.2,0.5,0.2,2.6,0.3,3.2c0,0-0.2,6-6.2,9.5c0,0,0,0,0,0l-2.7-5.4c0,0,0,0,0,0c0,0,0,0,0,0
				c0.1,0.3,0.8,2.5,2.3,5.6c-1.3,0.7-3.1,1.2-5.2,1.4c-1.7,0.1-3.3-0.2-4.8-0.6c-3.7-1.2-6-3.7-7.1-5c-0.3-0.3,0-0.8,0.4-0.8
				c0.3,0,1.5,0.7,2.2,0.6c0.3,0,0.8-0.3-0.1-0.8c-0.5-0.3-1.2-0.6-1.9-1c0.7,0.2,1.4,0.3,2.2,0.4c1.1,0.1,1.5-0.5,1.6-0.9
				c0-0.1,0-0.1,0-0.2c0,0.1-0.1,0.2-0.1,0.3l0,0c-0.2,0.2-0.6,0.4-1.3,0.3c-1.2-0.1-2.4-0.3-3.5-0.7c-0.8-0.7-1.6-1.5-2.2-2.6
				c-0.1-0.3-0.3-0.6-0.4-0.9C73.3,75.2,95.6,73.1,100.1,72c5.3-1.3,6.2-2.6,7.6-5.5c0,0,0.2-0.7,0.7-0.2c0.4,0.4,0.7,1.1,1.9,0.9
				C111.1,67,111.5,67.7,110.8,68.3z"/>
			<path d="M98.3,95.3c0,0,2.8,6.3,4.2,7.4c4.3,3.6,4.4-3.7,11.7-4.3c5-0.4-1.2-12.9-11.8-10.3C103.2,95,98.3,95.3,98.3,95.3z"/>
		</g>
		<path d="M85.9,98.3c0,0,1,2.4-0.4,3.7c0,0,5.9-0.4,8.7-0.2c0,0-0.9-2,2.3-2.9C97.9,98.6,90.7,96.8,85.9,98.3z"/>
		<path d="M88,94.2c0,0-0.1,0.1-0.1,0.1l0,0c-0.2,0.2-0.6,0.4-1.3,0.3c-1.2-0.1-2.4-0.3-3.5-0.7c-1.9-0.7-3.5-1.7-4.6-2.7
			c-0.7-0.6-0.2-1.2,0.4-0.8c0.6,0.4,1.2,0.7,1.9,0.9c3,1.1,6.3,1,6.3,1s0.9,0.1,1,1.1C88.2,93.7,88.2,94,88,94.2z"/>
	</g>
</g>
</svg>
