<svg xmlns="http://www.w3.org/2000/svg" width="24.103" height="24.103" viewBox="0 0 24.103 24.103">
  <g id="language-square-svgrepo-com" transform="translate(-1.25 -1.25)">
    <path id="Path_3578" data-name="Path 3578" d="M18.289,8.96H7.01" transform="translate(0.652 0.906)" fill="none" stroke="#000" stroke-linecap="round" stroke-linejoin="round" stroke-width="1.5"/>
    <path id="Path_3579" data-name="Path 3579" d="M12,7.28v1.9" transform="translate(1.302 0.687)" fill="none" stroke="#000" stroke-linecap="round" stroke-linejoin="round" stroke-width="1.5"/>
    <path id="Path_3580" data-name="Path 3580" d="M15.476,8.94A8.638,8.638,0,0,1,7,17.733" transform="translate(0.651 0.903)" fill="none" stroke="#000" stroke-linecap="round" stroke-linejoin="round" stroke-width="1.5"/>
    <path id="Path_3581" data-name="Path 3581" d="M17.592,17.042A6.512,6.512,0,0,1,12.45,14.25" transform="translate(1.36 1.595)" fill="none" stroke="#000" stroke-linecap="round" stroke-linejoin="round" stroke-width="1.5"/>
    <path id="Path_3582" data-name="Path 3582" d="M9.911,24.6h6.781c5.651,0,7.911-2.26,7.911-7.911V9.911C24.6,4.26,22.343,2,16.692,2H9.911C4.26,2,2,4.26,2,9.911v6.781C2,22.343,4.26,24.6,9.911,24.6Z" fill="none" stroke="#000" stroke-linecap="round" stroke-linejoin="round" stroke-width="1.5"/>
  </g>
</svg>
