<svg xmlns="http://www.w3.org/2000/svg" width="60.363" height="60.363" viewBox="0 0 60.363 60.363">
  <path id="Path_7541" data-name="Path 7541" d="M286.182,256c-10.021,0-18.22.641-23.912,6.328S256,276.2,256,286.212s.579,18.2,6.273,23.886,13.887,6.265,23.908,6.265,18.217-.579,23.908-6.265,6.273-13.881,6.273-23.886-.589-18.217-6.293-23.9S296.186,256,286.182,256Zm-17.843,18.628h14.148c3.7,0,7.563.171,9.467,2.08,1.876,1.876,2.08,5.617,2.088,9.245v11.418a.377.377,0,0,1-.386.364h-4.9a.377.377,0,0,1-.382-.373V285.75c0-2.027-.118-4.11-1.167-5.158-.9-.905-2.581-1.109-4.326-1.152H274a.377.377,0,0,0-.38.37v17.558a.377.377,0,0,1-.382.373h-4.9a.377.377,0,0,1-.377-.373V275A.377.377,0,0,1,268.339,274.628Zm30.511,0h4.9a.377.377,0,0,1,.377.377V297.37a.377.377,0,0,1-.377.366h-4.9a.377.377,0,0,1-.38-.373V275a.377.377,0,0,1,.38-.375Zm-20.415,8.908h5.146a.374.374,0,0,1,.377.37v13.46a.377.377,0,0,1-.377.373h-5.146a.377.377,0,0,1-.382-.373V283.905A.377.377,0,0,1,278.435,283.536Z" transform="translate(-256 -256)"/>
</svg>
