<svg xmlns="http://www.w3.org/2000/svg" width="18.894" height="20.355" viewBox="0 0 18.894 20.355">
  <g id="Group_34389" data-name="Group 34389" transform="translate(-786.5 -523.477)">
    <path id="Path_3549" data-name="Path 3549" d="M10.982,2.538a1.988,1.988,0,0,1,1.931,0l7.47,4.15a.994.994,0,0,1,.511.869v8.186a1.988,1.988,0,0,1-1.023,1.738l-6.959,3.866a1.988,1.988,0,0,1-1.931,0L4.023,17.482A1.988,1.988,0,0,1,3,15.744V7.557a.994.994,0,0,1,.511-.869Z" transform="translate(784 521.712)" fill="none" stroke="#000" stroke-linecap="round" stroke-linejoin="round" stroke-width="1"/>
    <path id="Path_3550" data-name="Path 3550" d="M3,7l8.947,4.971m0,0L20.894,7m-8.947,4.971v9.444" transform="translate(784 521.684)" fill="none" stroke="#000" stroke-linejoin="round" stroke-width="1"/>
    <path id="Path_3551" data-name="Path 3551" d="M7.5,9.471,16.447,4.5" transform="translate(783.974 521.699)" fill="none" stroke="#000" stroke-linecap="round" stroke-linejoin="round" stroke-width="1"/>
    <path id="Path_3552" data-name="Path 3552" d="M6,12.328,8.982,13.99" transform="translate(783.982 521.653)" fill="none" stroke="#000" stroke-linecap="round" stroke-linejoin="round" stroke-width="1"/>
  </g>
</svg>
