<svg xmlns="http://www.w3.org/2000/svg" width="121.046" height="18.498" viewBox="0 0 121.046 18.498">
  <path id="samsung-svgrepo-com" d="M99.947,10.744l.232,13.584h-.116l-3.93-13.584H89.657v17.11h4.277L93.7,13.808h.116l4.219,14.046h6.185V10.744Zm-81.449,0L15.261,28.029h4.682l2.37-15.723h.115l2.312,15.723h4.624L26.186,10.744Zm26.128,0-2.138,13.18h-.116l-2.138-13.18H33.181l-.347,17.284h4.335l.116-15.55h.057l2.89,15.55h4.393l2.89-15.549h.116l.115,15.549h4.335l-.4-17.284ZM7.977,23.115a2.426,2.426,0,0,1,.057,1.272c-.115.578-.52,1.156-1.676,1.156a1.539,1.539,0,0,1-1.734-1.561V22.306H0v1.329c0,3.873,3.063,5.029,6.3,5.029,3.121,0,5.722-1.1,6.127-3.931a8.467,8.467,0,0,0,0-2.832c-.809-3.641-7.4-4.682-7.862-6.705a2.48,2.48,0,0,1,0-.925,1.408,1.408,0,0,1,1.561-1.156,1.474,1.474,0,0,1,1.619,1.561v1.04h4.335V14.5c0-3.757-3.41-4.335-5.838-4.335-3.063,0-5.607,1.04-6.069,3.815a5.241,5.241,0,0,0,.057,2.312c.694,3.584,6.879,4.624,7.746,6.821m56.246,0a2.413,2.413,0,0,1,.058,1.272c-.116.578-.521,1.156-1.677,1.156a1.539,1.539,0,0,1-1.734-1.561V22.306H56.245v1.329c0,3.815,3.006,4.971,6.243,4.971,3.121,0,5.665-1.04,6.069-3.931a8.52,8.52,0,0,0,0-2.832c-.693-3.584-7.226-4.682-7.688-6.647a2.462,2.462,0,0,1,0-.925,1.407,1.407,0,0,1,1.56-1.156,1.5,1.5,0,0,1,1.619,1.561v1.04h4.277V14.5c0-3.757-3.352-4.335-5.78-4.335-3.064,0-5.55.982-6.012,3.815a6.269,6.269,0,0,0,.058,2.312c.694,3.584,6.763,4.566,7.631,6.821M78.79,25.427a1.574,1.574,0,0,0,1.676-1.272,2.361,2.361,0,0,0,.058-.635V10.744h4.393V23.173a6.691,6.691,0,0,1-.058,1.156c-.289,3.237-2.832,4.278-6.012,4.278s-5.722-1.04-6.012-4.278c0-.174-.057-.809-.057-1.156V10.744h4.393V23.52a2.159,2.159,0,0,0,.058.635c0,.462.347,1.272,1.561,1.272m36.071-.173a1.672,1.672,0,0,0,1.792-1.272,2.361,2.361,0,0,0,.058-.635V20.86h-1.792V18.317h6.127v4.625a9.431,9.431,0,0,1-.058,1.156c-.289,3.179-3.006,4.277-6.069,4.277s-5.78-1.1-6.069-4.277a9.433,9.433,0,0,1-.058-1.156V15.658c0-.289.058-.867.058-1.156.4-3.237,3.006-4.278,6.069-4.278s5.723,1.04,6.069,4.278c.058.52.058,1.156.058,1.156v.578h-4.335v-.982a3.422,3.422,0,0,0-.058-.636,1.552,1.552,0,0,0-1.734-1.271,1.6,1.6,0,0,0-1.734,1.271,3.544,3.544,0,0,0-.058.809v7.919a2.159,2.159,0,0,0,.058.635c0,.462.462,1.272,1.676,1.272" transform="translate(0 -10.166)"/>
</svg>
